HIERARCHY
ROOT Hips
{
	OFFSET 0.000000 0.000000 0.000000
	CHANNELS 6 Xposition Yposition Zposition Xrotation Yrotation Zrotation
	JOINT LeftUpLeg_virtual
	{
		OFFSET 0.000000 0.000000 0.000000
		CHANNELS 3 Xrotation Yrotation Zrotation
		JOINT LeftUpLeg
		{
			OFFSET 11.394100 -6.187798 -0.413800
			CHANNELS 3 Xrotation Yrotation Zrotation
			JOINT LeftLeg
			{
				OFFSET 0.430247 -32.302673 3.732800
				CHANNELS 3 Xrotation Yrotation Zrotation
				JOINT LeftFoot
				{
					OFFSET -0.430247 -48.264931 -6.423300
					CHANNELS 3 Xrotation Yrotation Zrotation
					JOINT LeftToeBase
					{
						OFFSET 4.230900 -16.068199 23.438400
						CHANNELS 3 Xrotation Yrotation Zrotation
						JOINT LeftToe_End
						{
							OFFSET 4.510700 0.695400 19.974600
							CHANNELS 3 Xrotation Yrotation Zrotation
							End Site
							{
								OFFSET 0 0 0
							}
						}
					}
				}
			}
		}
	}
	JOINT RightUpLeg_virtual
	{
		OFFSET 0.000000 0.000000 0.000000
		CHANNELS 3 Xrotation Yrotation Zrotation
		JOINT RightUpLeg
		{
			OFFSET -11.333700 -6.187798 -0.413800
			CHANNELS 3 Xrotation Yrotation Zrotation
			JOINT RightLeg
			{
				OFFSET -0.430392 -32.302628 3.733000
				CHANNELS 3 Xrotation Yrotation Zrotation
				JOINT RightFoot
				{
					OFFSET 0.430392 -48.264973 -6.423500
					CHANNELS 3 Xrotation Yrotation Zrotation
					JOINT RightToeBase
					{
						OFFSET -4.230900 -16.068199 23.438400
						CHANNELS 3 Xrotation Yrotation Zrotation
						JOINT RightToe_End
						{
							OFFSET -4.510700 0.695400 19.974600
							CHANNELS 3 Xrotation Yrotation Zrotation
							End Site
							{
								OFFSET 0 0 0
							}
						}
					}
				}
			}
		}
	}
	JOINT Spine_virtual
	{
		OFFSET 0.000000 0.000000 0.000000
		CHANNELS 3 Xrotation Yrotation Zrotation
		JOINT Spine
		{
			OFFSET -0.002400 12.777504 0.315300
			CHANNELS 3 Xrotation Yrotation Zrotation
			JOINT Spine1
			{
				OFFSET -0.002067 5.816869 0.032633
				CHANNELS 3 Xrotation Yrotation Zrotation
				JOINT Spine1_split
				{
					OFFSET -0.002067 5.816869 0.032633
					CHANNELS 3 Xrotation Yrotation Zrotation
					JOINT Spine2
					{
						OFFSET -0.002067 5.816869 0.032633
						CHANNELS 3 Xrotation Yrotation Zrotation
						JOINT Neck_virtual
						{
							OFFSET 0.000000 0.000000 0.000000
							CHANNELS 3 Xrotation Yrotation Zrotation
							JOINT Neck
							{
								OFFSET -0.003700 21.199493 -0.826900
								CHANNELS 3 Xrotation Yrotation Zrotation
								JOINT Head
								{
									OFFSET 0.000000 20.442200 4.834800
									CHANNELS 3 Xrotation Yrotation Zrotation
									JOINT HeadTop_End
									{
										OFFSET 0.000000 34.668396 4.968400
										CHANNELS 3 Xrotation Yrotation Zrotation
										End Site
										{
											OFFSET 0 0 0
										}
									}
								}
							}
						}
						JOINT LeftShoulder_virtual
						{
							OFFSET 0.000000 0.000000 0.000000
							CHANNELS 3 Xrotation Yrotation Zrotation
							JOINT LeftShoulder
							{
								OFFSET 3.288150 8.794197 -1.372250
								CHANNELS 3 Xrotation Yrotation Zrotation
								JOINT LeftShoulder_split
								{
									OFFSET 3.288150 8.794197 -1.372250
									CHANNELS 3 Xrotation Yrotation Zrotation
									JOINT LeftArm
									{
										OFFSET 11.953299 -2.279007 -0.146200
										CHANNELS 3 Xrotation Yrotation Zrotation
										JOINT LeftForeArm
										{
											OFFSET 18.448900 0.000000 0.000000
											CHANNELS 3 Xrotation Yrotation Zrotation
											JOINT LeftHand
											{
												OFFSET 29.527798 0.000000 0.000000
												CHANNELS 3 Xrotation Yrotation Zrotation
												End Site
												{
													OFFSET 0 0 0
												}
											}
										}
									}
								}
							}
						}
						JOINT RightShoulder_virtual
						{
							OFFSET 0.000000 0.000000 0.000000
							CHANNELS 3 Xrotation Yrotation Zrotation
							JOINT RightShoulder
							{
								OFFSET -3.249400 8.794197 -1.372250
								CHANNELS 3 Xrotation Yrotation Zrotation
								JOINT RightShoulder_split
								{
									OFFSET -3.249400 8.794197 -1.372250
									CHANNELS 3 Xrotation Yrotation Zrotation
									JOINT RightArm
									{
										OFFSET -11.953299 -2.279007 -0.146200
										CHANNELS 3 Xrotation Yrotation Zrotation
										JOINT RightForeArm
										{
											OFFSET -18.448900 0.000000 0.000000
											CHANNELS 3 Xrotation Yrotation Zrotation
											JOINT RightHand
											{
												OFFSET -29.527802 0.000000 0.000000
												CHANNELS 3 Xrotation Yrotation Zrotation
												End Site
												{
													OFFSET 0 0 0
												}
											}
										}
									}
								}
							}
						}
					}
				}
			}
		}
	}
}
MOTION
Frames: 5
Frame Time: 0.03333333
1.907290 94.248695 -3.150768 0.000000 0.000000 0.000000 -10.989386 -46.653044 -8.550793 -31.579892 -5.770260 15.457171 33.568440 -3.637949 -1.055242 5.150493 -6.330817 -11.393817 -9.807316 -6.295027 4.369318 0.000000 0.000000 0.000000 -10.076674 -41.466761 -7.602351 -7.908054 -16.484525 -11.156819 42.055753 -2.615498 -7.649154 -12.845171 -0.600663 16.097894 1.132471 -0.633071 0.525238 0.000000 0.000000 0.000000 -13.777809 -43.232400 -10.527318 7.646479 5.328828 -0.935461 13.233788 9.786499 -4.103761 0.663953 2.548436 0.191519 0.000000 0.000000 0.000000 10.936496 8.834020 -4.463050 -5.799130 -3.562372 3.310868 -12.269917 22.501952 -0.147352 0.000000 0.000000 0.000000 11.829678 9.365854 -4.119603 2.948862 -2.516376 -4.877936 -2.663295 -1.467534 -3.801082 -16.037960 -1.913513 -58.135585 17.541809 -53.968398 8.389821 0.000000 0.000000 0.000000 12.337687 9.480859 -4.171807 0.988947 10.081480 12.028665 0.739916 3.989464 3.904443 3.922436 -19.597910 63.884317 -1.713334 47.670892 3.153190 0.000000 0.000000 0.000000 
1.727983 93.831764 -2.941250 0.000000 0.000000 0.000000 -8.703637 -45.046935 -7.189424 -33.039117 -6.222650 15.766279 32.827163 -3.172398 -1.036839 5.505290 -7.075077 -10.494168 -8.466875 -6.131131 4.012077 0.000000 0.000000 0.000000 -8.867405 -39.884828 -7.019858 -9.095167 -16.933021 -10.330279 42.277454 -1.998036 -8.931733 -12.818911 -0.566981 18.505812 1.306186 -0.542580 0.597577 0.000000 0.000000 0.000000 -11.739259 -42.648630 -9.507199 7.794228 5.533594 -0.857816 13.250629 9.791216 -4.142635 -0.055530 1.095629 0.719698 0.000000 0.000000 0.000000 10.636122 8.898316 -4.267754 -5.821480 -3.475519 2.918585 -11.878719 22.657184 0.042740 0.000000 0.000000 0.000000 11.849655 9.312701 -4.195360 2.954197 -2.442929 -5.162943 -2.596627 -1.178826 -3.600052 -12.831846 -1.481915 -57.113123 19.064766 -56.026181 9.050048 0.000000 0.000000 0.000000 12.296116 9.662351 -3.915465 1.203711 10.250837 11.664670 0.787773 4.910859 2.420514 3.210651 -19.894137 62.719394 -0.585835 48.393796 1.970632 0.000000 0.000000 0.000000 
1.282213 92.779221 -3.224667 0.000000 0.000000 0.000000 -5.257533 -42.413651 -5.392159 -37.460442 -6.288784 16.398739 33.359006 -2.228133 -0.133536 7.226371 -8.479972 -9.473302 -8.234261 -5.940983 3.505744 0.000000 0.000000 0.000000 -5.939546 -36.341729 -5.864275 -11.477391 -17.645452 -8.688959 43.792588 -1.184405 -11.310868 -12.720506 -0.016713 20.796615 0.452865 -0.285426 0.403756 0.000000 0.000000 0.000000 -8.715608 -40.289544 -8.282971 8.292460 5.377298 -1.061488 13.316750 9.529438 -3.869435 -0.180743 -0.372309 1.233018 0.000000 0.000000 0.000000 10.379932 8.756705 -3.697068 -5.783660 -3.569963 2.229882 -11.168332 22.629784 0.178838 0.000000 0.000000 0.000000 11.950439 9.032527 -3.999410 3.005306 -2.740384 -5.404201 -2.807037 -0.935227 -2.972539 -7.038954 -0.838287 -55.774218 19.095023 -60.914079 8.193630 0.000000 0.000000 0.000000 12.285939 9.650226 -3.364634 1.504471 10.109145 10.842298 1.005940 5.056075 1.701646 3.060126 -18.457222 61.451403 2.615997 49.841584 -1.342166 0.000000 0.000000 0.000000 
0.728906 91.152428 -4.090107 0.000000 0.000000 0.000000 -1.090202 -38.787172 -3.693644 -44.719789 -5.916111 17.260566 35.037996 -0.916167 1.426624 9.810966 -10.490505 -8.294247 -8.191260 -5.647770 3.180638 0.000000 0.000000 0.000000 -1.981238 -31.881137 -4.771942 -14.945847 -18.625870 -6.251775 47.133595 -0.738666 -14.588803 -13.407262 0.600265 22.170207 -0.832547 0.048072 0.061895 0.000000 0.000000 0.000000 -4.780003 -36.894940 -7.057774 8.881823 4.976734 -1.475416 13.367063 9.059371 -3.362389 0.209119 -1.349230 1.248730 0.000000 0.000000 0.000000 10.277913 8.403317 -2.906915 -5.904019 -3.717587 1.389268 -10.326680 22.552376 0.161601 0.000000 0.000000 0.000000 12.081065 8.614092 -3.581334 3.065771 -3.218770 -5.437008 -2.891440 -1.260304 -1.858919 0.190443 -0.180427 -54.435771 17.732556 -67.713088 6.096216 0.000000 0.000000 0.000000 12.341220 9.436246 -2.669372 1.779024 9.637196 9.732920 1.749023 5.124201 1.699346 3.353539 -15.624322 60.487110 7.657571 51.838680 -6.575549 0.000000 0.000000 0.000000 
0.098506 89.112190 -5.228745 0.000000 0.000000 0.000000 3.473889 -34.590100 -2.526258 -53.886077 -5.262854 18.254883 37.977419 0.581755 3.350196 13.126336 -12.714128 -6.741882 -7.449590 -5.162003 2.998032 0.000000 0.000000 0.000000 2.521867 -27.354078 -3.994619 -19.532562 -20.053178 -3.313269 53.139377 -1.297967 -18.327197 -14.760090 1.011513 22.345548 -1.316464 0.459885 -0.456079 0.000000 0.000000 0.000000 -0.397927 -33.182780 -6.091554 9.384419 4.513427 -1.960436 13.379646 8.448798 -2.758544 0.934326 -1.836285 1.035482 0.000000 0.000000 0.000000 10.446446 7.883601 -2.102380 -6.506016 -3.794265 0.530941 -9.639691 22.588822 0.055770 0.000000 0.000000 0.000000 12.272497 8.127211 -3.067776 3.142480 -3.617485 -5.152018 -2.498447 -2.192427 -0.741159 7.227583 0.201423 -53.734929 15.103264 -74.715214 2.855545 0.000000 0.000000 0.000000 12.523545 9.015777 -2.007466 1.983298 8.696871 8.412804 2.895620 5.172562 1.890993 3.865052 -11.869917 60.141127 14.095441 54.038981 -13.329924 0.000000 0.000000 0.000000 
